PathFileType	4	(X/Y/Z)	C:\Users\°ÂÌØÂü\Desktop\20201223\Trimmed_Trimmed_bx_y_10_501.trc
DataRate	CameraRate	NumFrames	NumMarkers	Units	OrigDataRate	OrigDataStartFrame	OrigNumFrames
50.00	50.00	      8	43	mm	50.00	360	      1437
Frame#	Time	Top.Head			R.Acromium			L.Acromium			Sternum			R.ASIS			L.ASIS			V.Sacral			R.Thigh.Upper			R.Thigh.Front			R.Thigh.Rear			R.Knee.Lat			R.Knee.Med			R.Shank.Upper			R.Shank.Front			R.Shank.Rear			R.Ankle.Lat			R.Midfoot.Lat			R.Toe.Lat			R.Toe.Tip			R.Toe.Med			R.Ankle.Med			R.Midfoot.Sup			R.Heel			L.Thigh.Upper			L.Thigh.Front			L.Thigh.Rear			L.Knee.Lat			L.Knee.Med			L.Shank.Upper			L.Shank.Front			L.Shank.Rear			L.Ankle.Lat			L.Midfoot.Lat			L.Toe.Lat			L.Toe.Tip			L.Toe.Med			L.Ankle.Med			L.Midfoot.Sup			L.Heel			origin1 front left			origin2 front right			origin 3 back right			origin 4 back leftt			
		X1	Y1	Z1	X2	Y2	Z2	X3	Y3	Z3	X4	Y4	Z4	X5	Y5	Z5	X6	Y6	Z6	X7	Y7	Z7	X8	Y8	Z8	X9	Y9	Z9	X10	Y10	Z10	X11	Y11	Z11	X12	Y12	Z12	X13	Y13	Z13	X14	Y14	Z14	X15	Y15	Z15	X16	Y16	Z16	X17	Y17	Z17	X18	Y18	Z18	X19	Y19	Z19	X20	Y20	Z20	X21	Y21	Z21	X22	Y22	Z22	X23	Y23	Z23	X24	Y24	Z24	X25	Y25	Z25	X26	Y26	Z26	X27	Y27	Z27	X28	Y28	Z28	X29	Y29	Z29	X30	Y30	Z30	X31	Y31	Z31	X32	Y32	Z32	X33	Y33	Z33	X34	Y34	Z34	X35	Y35	Z35	X36	Y36	Z36	X37	Y37	Z37	X38	Y38	Z38	X39	Y39	Z39	X40	Y40	Z40	X41	Y41	Z41	X42	Y42	Z42	X43	Y43	Z43	

360	7.180	-103.62103	263.61450	1350.90320	-307.71442	82.14270	1155.95679	-306.20404	434.41025	1144.49255	-413.93216	261.85254	1147.67261	-721.80042	154.49387	1002.02289	-720.99768	399.42752	1032.32520	-867.86755	255.55325	1098.18176	-750.73376	98.93904	877.31366	-694.68848	156.28331	830.47418	-785.31982	90.41557	731.78748	-762.08942	123.55649	593.40686	-737.70538	230.90367	550.75128	-780.17041	121.82056	525.31134	-699.62903	172.89993	546.01587	-799.57764	123.18498	450.41046	-695.27649	139.03036	212.29692	-616.56512	76.06087	166.93088	-572.75574	48.56167	160.07689	-495.39597	93.87602	161.55656	-534.16913	143.68747	165.44305	-644.32098	212.96944	227.95116	-594.50183	185.47906	175.95363	-719.17334	209.49365	171.41011	-748.05499	446.48840	865.73163	-692.76318	387.00049	823.26959	-775.66028	455.01242	731.13263	-774.74805	423.28964	607.53412	-726.95355	316.66394	568.11499	-766.32220	419.90894	547.49396	-707.57123	378.06940	538.79541	-803.34760	425.43665	484.59927	-687.05548	420.01297	211.28543	-584.78107	469.45969	163.02005	-546.26117	479.59076	156.45592	-489.66699	427.21521	167.01015	-526.72565	388.67395	176.96707	-647.63989	330.29913	214.25494	-594.24371	350.81418	173.55061	-730.64099	345.71033	167.37440	-443.58536	449.06705	146.89076	-450.56839	75.27024	144.54820	-806.26147	82.65999	142.56978	-798.83752	458.00119	146.08702	
361	7.200	-100.98639	263.68994	1349.79370	-305.99353	81.87035	1155.72266	-304.46027	434.28790	1144.81445	-413.43326	261.47559	1146.73145	-721.72046	154.14796	1002.08209	-721.10266	398.93213	1032.08228	-866.20947	255.03893	1098.62195	-749.20947	98.68314	877.51086	-693.44800	156.09888	830.56177	-784.01917	90.20692	731.96729	-761.04034	123.45325	593.54999	-736.68359	230.83632	551.05792	-779.33618	121.56285	525.53070	-698.79797	172.85075	546.10913	-798.91498	123.01855	450.71851	-695.11072	139.02702	212.44484	-616.38226	76.12894	167.06857	-572.72992	48.60671	160.20538	-495.29425	93.79698	161.46785	-534.04767	143.83006	165.34766	-644.14880	213.06442	227.86656	-594.34735	185.41499	175.85797	-719.03180	209.60538	171.34807	-746.70349	446.12643	866.01898	-691.56128	386.71530	823.42090	-774.68396	454.71985	731.52429	-774.01453	422.96158	607.71747	-725.86169	316.51932	568.40509	-765.77148	419.73148	547.82843	-706.90973	377.98309	538.98651	-802.83490	425.36551	484.97580	-686.98901	420.15433	211.48492	-584.81329	469.51114	162.93045	-546.23914	479.58350	156.48618	-489.65948	427.20224	167.00548	-526.68726	388.68005	177.00085	-647.89807	330.14703	214.54654	-594.25568	350.87210	173.56180	-730.69263	346.11649	167.07904	-443.59985	449.07425	146.90620	-450.55447	75.22132	144.56583	-806.23889	82.68861	142.56203	-798.84045	458.07474	146.09175	
362	7.220	-98.67078	263.69897	1349.45508	-304.37720	81.60223	1155.86951	-302.74161	434.00787	1145.60461	-412.98566	261.09042	1145.91809	-721.59558	153.80319	1002.18768	-721.13531	398.41248	1031.84814	-864.68762	254.52690	1098.98352	-747.63849	98.38304	877.70831	-692.13202	155.91963	830.67859	-782.65308	90.03509	732.11560	-759.98560	123.37111	593.60962	-735.76923	230.77603	551.57416	-778.48834	121.41788	525.63074	-697.92859	172.87503	546.19000	-798.29547	122.77147	450.98032	-694.96729	139.01872	212.53949	-616.29193	76.19276	167.14740	-572.70612	48.64231	160.29898	-495.19290	93.74378	161.38132	-533.93658	143.93886	165.25916	-644.03540	213.13582	227.76543	-594.23340	185.36296	175.70604	-718.89392	209.71181	171.27055	-745.37256	445.80499	866.30371	-690.36761	386.42377	823.60699	-773.71576	454.48663	731.86633	-773.22815	422.78619	608.04376	-724.71802	316.39569	568.63379	-765.19086	419.43146	548.12134	-706.25146	377.88113	539.12354	-802.26154	425.25351	485.30032	-686.97815	420.31757	211.72530	-584.91650	469.60715	162.82372	-546.21790	479.57938	156.49921	-489.63995	427.19522	166.99323	-526.66516	388.69104	177.04137	-648.05994	330.06653	214.70859	-594.25647	350.91287	173.59793	-730.80261	346.42648	166.81851	-443.60464	449.08463	146.89473	-450.55289	75.18617	144.56654	-806.25043	82.71359	142.55472	-798.85010	458.18146	146.00868	
363	7.240	-96.68524	263.61703	1349.82043	-302.90182	81.33802	1156.40161	-301.13324	433.65070	1146.79187	-412.58914	260.69833	1145.23328	-721.42389	153.46069	1002.33820	-721.09570	397.87045	1031.62341	-863.27649	254.05589	1099.26880	-746.04773	98.12045	877.86078	-690.79443	155.81673	830.81091	-781.26593	89.84379	732.31909	-758.95184	123.24941	593.66455	-734.98645	230.64081	552.16675	-777.62299	121.32693	525.72351	-697.00537	172.90291	546.28131	-797.63507	122.52327	451.19217	-694.82642	139.00148	212.60863	-616.36047	76.25186	167.10341	-572.69354	48.66616	160.34944	-495.10803	93.71938	161.32661	-533.86768	143.98660	165.19183	-643.97302	213.18755	227.67937	-594.19287	185.37793	175.52975	-718.77576	209.81686	171.22610	-744.10828	445.45013	866.54395	-689.18909	386.08093	823.81628	-772.64984	454.25797	732.18604	-772.30798	422.72113	608.49567	-723.62927	316.32343	568.68054	-764.53729	419.07816	548.36841	-705.52863	377.73904	539.22852	-801.60510	425.06238	485.59320	-687.01514	420.41971	211.96687	-585.03754	469.70984	162.74554	-546.20496	479.58145	156.49226	-489.59985	427.20566	166.96146	-526.64691	388.70682	177.09285	-648.11340	330.01288	214.74998	-594.24249	350.92639	173.64388	-730.90082	346.48358	166.72267	-443.59665	449.10580	146.86183	-450.56262	75.16769	144.55864	-806.27277	82.72482	142.54076	-798.87848	458.22974	145.87202	
364	7.260	-95.05273	263.44791	1350.80566	-301.65125	81.07118	1157.26782	-299.68112	433.31253	1148.35510	-412.24359	260.30051	1144.67773	-721.20355	153.12155	1002.53229	-720.98376	397.30786	1031.40869	-861.96716	253.62624	1099.48926	-744.50183	97.92115	877.99750	-689.46875	155.73129	830.97638	-779.88293	89.61798	732.59192	-757.92157	123.04429	593.80121	-734.28308	230.40433	552.67291	-776.73029	121.17952	525.89838	-696.05536	172.85165	546.37457	-796.91223	122.32922	451.38885	-694.68689	139.01228	212.64888	-616.53229	76.30220	166.97653	-572.69702	48.69041	160.36000	-495.05380	93.71540	161.30238	-533.84229	143.99136	165.14925	-643.92932	213.26454	227.59093	-594.22742	185.45746	175.34799	-718.67847	209.92595	171.22668	-742.96143	444.94916	866.69220	-688.00671	385.65982	824.05524	-771.45074	453.97449	732.52417	-771.30231	422.61566	608.92255	-722.65503	316.31110	568.51245	-763.78558	418.74069	548.56598	-704.70984	377.55576	539.34991	-800.90063	424.76974	485.86810	-687.05426	420.37640	212.13388	-585.12091	469.77277	162.72014	-546.20551	479.59076	156.48921	-489.54498	427.22403	166.91205	-526.62427	388.72250	177.14381	-648.06512	329.96222	214.69125	-594.24084	350.89496	173.64449	-730.94952	346.31644	166.76355	-443.57715	449.12323	146.82603	-450.57651	75.16356	144.55562	-806.27692	82.71657	142.52907	-798.95996	458.14120	145.70558	
365	7.280	-93.80286	263.22339	1352.34863	-300.66916	80.78474	1158.42773	-298.40149	433.03778	1150.25269	-411.94891	259.89819	1144.25208	-720.93274	152.78690	1002.76849	-720.79944	396.72662	1031.20471	-860.77563	253.20354	1099.64307	-743.03308	97.71092	878.21295	-688.16180	155.54794	831.18097	-778.51587	89.39923	732.87311	-756.89185	122.77634	594.02307	-733.57587	230.11642	553.02795	-775.84143	120.94176	526.14703	-695.14966	172.70728	546.44580	-796.18457	122.16785	451.60156	-694.54370	139.08202	212.64613	-616.67810	76.35179	166.85748	-572.70721	48.72184	160.34416	-495.02383	93.71396	161.28812	-533.83759	143.98416	165.13087	-643.88788	213.39771	227.46295	-594.30908	185.57172	175.16301	-718.59454	210.02945	171.24345	-741.95203	444.22656	866.69373	-686.78967	385.17041	824.32806	-770.17072	453.60889	732.87567	-770.30969	422.37845	609.21564	-721.81097	316.34909	568.17340	-762.92255	418.44141	548.71405	-703.83582	377.34998	539.48303	-800.20197	424.40750	486.11237	-687.05402	420.14676	212.14812	-585.15613	469.79285	162.73311	-546.22504	479.60980	156.51215	-489.48959	427.23853	166.86832	-526.59924	388.73813	177.18910	-647.88184	329.96106	214.52235	-594.25812	350.82339	173.57773	-730.96783	346.07269	166.82912	-443.56317	449.12170	146.80902	-450.58344	75.17630	144.56628	-806.25372	82.68508	142.54033	-799.10034	457.96106	145.50407	
366	7.300	-92.95367	262.97330	1354.41809	-299.93359	80.46210	1159.87280	-297.31012	432.81787	1152.39001	-411.70486	259.49258	1143.95703	-720.60956	152.45782	1003.04541	-720.54266	396.12857	1031.01221	-859.71844	252.77252	1099.71558	-741.63776	97.42001	878.53839	-686.90051	155.25871	831.38306	-777.19226	89.19581	733.13171	-755.91394	122.52048	594.23181	-732.80774	229.87064	553.27209	-775.02197	120.66771	526.39862	-694.33466	172.51746	546.49933	-795.52148	121.98821	451.80902	-694.37415	139.20421	212.61426	-616.71198	76.41817	166.80032	-572.71307	48.76062	160.32442	-494.98843	93.69170	161.26749	-533.83124	143.96968	165.13397	-643.85199	213.56068	227.28864	-594.39374	185.69333	174.97502	-718.52063	210.11920	171.23647	-741.01965	443.36417	866.56311	-685.55933	384.65656	824.57050	-768.90784	453.14532	733.16901	-769.37524	422.03030	609.36865	-721.09241	316.41943	567.74554	-761.98779	418.20346	548.84894	-702.96667	377.15060	539.58270	-799.53406	424.05496	486.31601	-687.02295	419.75635	211.96739	-585.17157	469.81116	162.75917	-546.26056	479.63553	156.55769	-489.42883	427.24417	166.86227	-526.56738	388.76328	177.22722	-647.52972	330.04352	214.23651	-594.26953	350.74329	173.48357	-730.99731	345.87390	166.84909	-443.56705	449.10815	146.82074	-450.57816	75.20627	144.58929	-806.21686	82.63081	142.58342	-799.23004	457.82587	145.32738	
367	7.320	-92.49310	262.69217	1356.98853	-299.37564	80.09711	1161.56567	-296.40613	432.61664	1154.64612	-411.51129	259.08496	1143.79346	-720.23218	152.13547	1003.36163	-720.21338	395.51553	1030.83191	-858.81543	252.35637	1099.70691	-740.32367	97.08054	878.89166	-685.74194	154.99150	831.50635	-775.98010	88.98129	733.37921	-755.04663	122.33881	594.33618	-731.97284	229.72150	553.43982	-774.31519	120.42567	526.59814	-693.58997	172.33507	546.55096	-794.95209	121.79557	451.96237	-694.17523	139.35747	212.56329	-616.64905	76.50278	166.80119	-572.71307	48.80290	160.31985	-494.91959	93.63333	161.23363	-533.81738	143.92313	165.14841	-643.82422	213.70528	227.10211	-594.43958	185.79796	174.80598	-718.46283	210.19038	171.19670	-740.06165	442.58380	866.42346	-684.37708	384.16699	824.68909	-767.73499	452.60724	733.34052	-768.49683	421.64102	609.41876	-720.49249	316.50232	567.32220	-761.08044	418.04623	549.03021	-702.14868	376.96689	539.62970	-798.91138	423.78439	486.50269	-686.99707	419.34494	211.69215	-585.19312	469.85580	162.78299	-546.29724	479.64938	156.60222	-489.35422	427.24628	166.89951	-526.53003	388.80078	177.25006	-647.08777	330.13556	213.87039	-594.26160	350.68390	173.40982	-731.05096	345.74167	166.82878	-443.58066	449.10214	146.85017	-450.56778	75.24323	144.61324	-806.19574	82.57392	142.63406	-799.26563	457.82123	145.27592	
